{"title":"The Hunger Games Mockingjay Part 1 2014 Movies HDRip New ~ â˜»rDXâ˜»","uid":11707760,"size":743274033,"categoryP":"video","categoryS":"movies","magnet":"?xt=urn:btih:8a39dea19fc3d40f8bb2fb5e276843615e98806d&amp;dn=The+Hunger+Games+Mockingjay+Part+1+2014+Movies+HDRip+New+%7E+%E2%98%BBrDX%E2%98%BB&amp;tr=udp%3A%2F%2Ftracker.openbittorrent.com%3A80&amp;tr=udp%3A%2F%2Fopen.demonii.com%3A1337&amp;tr=udp%3A%2F%2Ftracker.coppersurfer.tk%3A6969&amp;tr=udp%3A%2F%2Fexodus.desync.com%3A6969","seeders":4,"leechers":1,"uploader":"basicssom","files":2,"time":1424201530,"description":"----------------------------------------------------------------\nThe Hunger Games Mockingjay Part 1 2014 English Movies HDRip XViD AAC New Source +Sample â˜»rDXâ˜»\n\nSCREEN SHOTS &amp; POSTER:\n &lt;a href=&quot;\nhttp://planethost.co.nr/2015/2/TheHungerGamesMockingjayhr/11.html&quot; rel=&quot;nofollow&quot; target=&quot;_NEW&quot;&gt;\nhttp://planethost.co.nr/2015/2/TheHungerGamesMockingjayhr/11.html&lt;/a&gt; &lt;a href=&quot;\nhttp://planethost.co.nr/2015/2/TheHungerGamesMockingjayhr/1.html&quot; rel=&quot;nofollow&quot; target=&quot;_NEW&quot;&gt;\nhttp://planethost.co.nr/2015/2/TheHungerGamesMockingjayhr/1.html&lt;/a&gt; &lt;a href=&quot;\nhttp://planethost.co.nr/2015/2/TheHungerGamesMockingjayhr/2.html&quot; rel=&quot;nofollow&quot; target=&quot;_NEW&quot;&gt;\nhttp://planethost.co.nr/2015/2/TheHungerGamesMockingjayhr/2.html&lt;/a&gt; &lt;a href=&quot;\nhttp://planethost.co.nr/2015/2/TheHungerGamesMockingjayhr/3.html&quot; rel=&quot;nofollow&quot; target=&quot;_NEW&quot;&gt;\nhttp://planethost.co.nr/2015/2/TheHungerGamesMockingjayhr/3.html&lt;/a&gt; &lt;a href=&quot;\nhttp://planethost.co.nr/2015/2/TheHungerGamesMockingjayhr/4.html&quot; rel=&quot;nofollow&quot; target=&quot;_NEW&quot;&gt;\nhttp://planethost.co.nr/2015/2/TheHungerGamesMockingjayhr/4.html&lt;/a&gt; &lt;a href=&quot;\nhttp://planethost.co.nr/2015/2/TheHungerGamesMockingjayhr/5.html&quot; rel=&quot;nofollow&quot; target=&quot;_NEW&quot;&gt;\nhttp://planethost.co.nr/2015/2/TheHungerGamesMockingjayhr/5.html&lt;/a&gt; &lt;a href=&quot;\nhttp://planethost.co.nr/2015/2/TheHungerGamesMockingjayhr/6.html&quot; rel=&quot;nofollow&quot; target=&quot;_NEW&quot;&gt;\nhttp://planethost.co.nr/2015/2/TheHungerGamesMockingjayhr/6.html&lt;/a&gt; &lt;a href=&quot;\nhttp://planethost.co.nr/2015/2/TheHungerGamesMockingjayhr/7.html&quot; rel=&quot;nofollow&quot; target=&quot;_NEW&quot;&gt;\nhttp://planethost.co.nr/2015/2/TheHungerGamesMockingjayhr/7.html&lt;/a&gt; &lt;a href=&quot;\nhttp://planethost.co.nr/2015/2/TheHungerGamesMockingjayhr/8.html&quot; rel=&quot;nofollow&quot; target=&quot;_NEW&quot;&gt;\nhttp://planethost.co.nr/2015/2/TheHungerGamesMockingjayhr/8.html&lt;/a&gt; &lt;a href=&quot;\nhttp://planethost.co.nr/2015/2/TheHungerGamesMockingjayhr/9.html&quot; rel=&quot;nofollow&quot; target=&quot;_NEW&quot;&gt;\nhttp://planethost.co.nr/2015/2/TheHungerGamesMockingjayhr/9.html&lt;/a&gt; &lt;a href=&quot;\nhttp://planethost.co.nr/2015/2/TheHungerGamesMockingjayhr/10.html&quot; rel=&quot;nofollow&quot; target=&quot;_NEW&quot;&gt;\nhttp://planethost.co.nr/2015/2/TheHungerGamesMockingjayhr/10.html&lt;/a&gt;\n\nFormat                                   : Matroska\nFormat version                           : Version 4 / Version 2\nFile size                                : 704 MiB\nDuration                                 : 1h 57mn\nOverall bit rate mode                    : Variable\nOverall bit rate                         : 835 Kbps\nMovie name                               : The Hunger Games Mockingjay Part 1 2014 English Movies HDRip XViD AAC ~ rDX ~\n\nVideo\nID                                       : 1\nFormat                                   : MPEG-4 Visual\nFormat profile                           : Advanced Simple@L5\nFormat settings, BVOP                    : Yes\nFormat settings, QPel                    : Yes\nFormat settings, GMC                     : No warppoints\nFormat settings, Matrix                  : Default (H.263)\nCodec ID                                 : V_MS/VFW/FOURCC / XVID\nCodec ID/Hint                            : XviD\nDuration                                 : 1h 57mn\nBit rate                                 : 728 Kbps\nWidth                                    : 640 pixels\nHeight                                   : 272 pixels\nDisplay aspect ratio                     : 2.35:1\nFrame rate mode                          : Constant\nFrame rate                               : 25.000 fps\nColor space                              : YUV\nChroma subsampling                       : 4:2:0\nBit depth                                : 8 bits\nScan type                                : Progressive\nCompression mode                         : Lossy\nBits/(Pixel*Frame)                       : 0.167\nStream size                              : 614 MiB (87%)\nTitle                                    : ~ rDX ~\nWriting library                          : XviD 1.2.1 (UTC 2008-12-04)\nDefault                                  : Yes\nForced                                   : No\n\nAudio\nID                                       : 2\nFormat                                   : MPEG Audio\nFormat version                           : Version 1\nFormat profile                           : Layer 3\nMode                                     : Joint stereo\nMode extension                           : MS Stereo\nCodec ID                                 : A_MPEG/L3\nCodec ID/Hint                            : MP3\nDuration                                 : 1h 57mn\nBit rate mode                            : Variable\nBit rate                                 : 90.4 Kbps\nNominal bit rate                         : 96.0 Kbps\nChannel(s)                               : 2 channels\nSampling rate                            : 32.0 KHz\nCompression mode                         : Lossy\nStream size                              : 76.1 MiB (11%)\nTitle                                    : ~ rDX ~\nWriting library                          : LAME3.99r\nEncoding settings                        : -m j -V 4 -q 2 -lowpass 15.1 --abr 96\nDefault                                  : Yes\nForced                                   : No","torrent":{"xt":"urn:btih:8a39dea19fc3d40f8bb2fb5e276843615e98806d","amp;dn":"The+Hunger+Games+Mockingjay+Part+1+2014+Movies+HDRip+New+%7E+%E2%98%BBrDX%E2%98%BB","amp;tr":["udp%3A%2F%2Ftracker.openbittorrent.com%3A80","udp%3A%2F%2Fopen.demonii.com%3A1337","udp%3A%2F%2Ftracker.coppersurfer.tk%3A6969","udp%3A%2F%2Fexodus.desync.com%3A6969"],"infoHash":"8a39dea19fc3d40f8bb2fb5e276843615e98806d","infoHashBuffer":{"type":"Buffer","data":[138,57,222,161,159,195,212,15,139,178,251,94,39,104,67,97,94,152,128,109]},"announce":[],"urlList":[]}}